<svg width="27" height="28" viewBox="0 0 27 28" fill="none" xmlns="http://www.w3.org/2000/svg">
<path d="M13.5013 10C12.4404 10 11.423 10.4214 10.6729 11.1716C9.92272 11.9217 9.50129 12.9392 9.50129 14C9.50129 15.0609 9.92272 16.0783 10.6729 16.8284C11.423 17.5786 12.4404 18 13.5013 18C14.5622 18 15.5796 17.5786 16.3297 16.8284C17.0799 16.0783 17.5013 15.0609 17.5013 14C17.5013 12.9392 17.0799 11.9217 16.3297 11.1716C15.5796 10.4214 14.5622 10 13.5013 10ZM13.5013 7.33335C15.2694 7.33335 16.9651 8.03573 18.2153 9.28597C19.4656 10.5362 20.168 12.2319 20.168 14C20.168 15.7681 19.4656 17.4638 18.2153 18.7141C16.9651 19.9643 15.2694 20.6667 13.5013 20.6667C11.7332 20.6667 10.0375 19.9643 8.78725 18.7141C7.537 17.4638 6.83463 15.7681 6.83463 14C6.83463 12.2319 7.537 10.5362 8.78725 9.28597C10.0375 8.03573 11.7332 7.33335 13.5013 7.33335ZM22.168 7.00002C22.168 7.44205 21.9924 7.86597 21.6798 8.17853C21.3672 8.49109 20.9433 8.66669 20.5013 8.66669C20.0593 8.66669 19.6353 8.49109 19.3228 8.17853C19.0102 7.86597 18.8346 7.44205 18.8346 7.00002C18.8346 6.55799 19.0102 6.13407 19.3228 5.82151C19.6353 5.50895 20.0593 5.33335 20.5013 5.33335C20.9433 5.33335 21.3672 5.50895 21.6798 5.82151C21.9924 6.13407 22.168 6.55799 22.168 7.00002ZM13.5013 3.33335C10.2026 3.33335 9.66396 3.34269 8.12929 3.41069C7.08396 3.46002 6.38263 3.60002 5.73196 3.85335C5.18745 4.05327 4.69518 4.3737 4.29196 4.79069C3.87463 5.19389 3.55376 5.68613 3.35329 6.23069C3.09996 6.88402 2.95996 7.58402 2.91196 8.62802C2.84263 10.1 2.83329 10.6147 2.83329 14C2.83329 17.3 2.84263 17.8374 2.91063 19.372C2.95996 20.416 3.09996 21.1187 3.35196 21.768C3.57863 22.348 3.84529 22.7654 4.28796 23.208C4.73729 23.656 5.15463 23.924 5.72796 24.1454C6.38663 24.4 7.08796 24.5414 8.12796 24.5894C9.59996 24.6587 10.1146 24.6667 13.5 24.6667C16.8 24.6667 17.3373 24.6574 18.872 24.5894C19.9146 24.54 20.616 24.4 21.268 24.148C21.812 23.9471 22.304 23.6268 22.708 23.2107C23.1573 22.7627 23.4253 22.3454 23.6466 21.7707C23.9 21.1147 24.0413 20.4134 24.0893 19.3707C24.1586 17.9 24.1666 17.384 24.1666 14C24.1666 10.7014 24.1573 10.1627 24.0893 8.62802C24.04 7.58535 23.8986 6.88135 23.6466 6.23069C23.4456 5.68671 23.1254 5.19466 22.7093 4.79069C22.3063 4.37315 21.814 4.05224 21.2693 3.85202C20.616 3.59869 19.9146 3.45869 18.872 3.41069C17.4013 3.34135 16.8866 3.33335 13.5 3.33335M13.5 0.666687C17.1226 0.666687 17.5746 0.68002 18.9973 0.746687C20.416 0.813354 21.384 1.03602 22.2333 1.36669C23.1133 1.70535 23.8546 2.16402 24.596 2.90402C25.274 3.57055 25.7986 4.37681 26.1333 5.26669C26.4626 6.11602 26.6866 7.08402 26.7533 8.50402C26.816 9.92535 26.8333 10.3774 26.8333 14C26.8333 17.6227 26.82 18.0747 26.7533 19.496C26.6866 20.916 26.4626 21.8827 26.1333 22.7334C25.7995 23.6237 25.2748 24.4301 24.596 25.096C23.9292 25.7738 23.123 26.2984 22.2333 26.6334C21.384 26.9627 20.416 27.1867 18.9973 27.2534C17.5746 27.316 17.1226 27.3334 13.5 27.3334C9.87729 27.3334 9.42529 27.32 8.00263 27.2534C6.58396 27.1867 5.61729 26.9627 4.76663 26.6334C3.87639 26.2993 3.07 25.7746 2.40396 25.096C1.72587 24.4296 1.20124 23.6233 0.866626 22.7334C0.535959 21.884 0.313293 20.916 0.246626 19.496C0.182626 18.0747 0.166626 17.6227 0.166626 14C0.166626 10.3774 0.179959 9.92535 0.246626 8.50402C0.313293 7.08402 0.535959 6.11735 0.866626 5.26669C1.20027 4.37626 1.72503 3.56978 2.40396 2.90402C3.07019 2.22566 3.87653 1.70099 4.76663 1.36669C5.61596 1.03602 6.58263 0.813354 8.00263 0.746687C9.42663 0.68402 9.87863 0.666687 13.5013 0.666687" fill="black"/>
</svg>
