<svg width="18" height="18" viewBox="0 0 18 18" fill="none" xmlns="http://www.w3.org/2000/svg">
<path d="M8.10354 3.31663C8.47037 2.57346 9.53012 2.57346 9.89695 3.31663L11.0853 5.72409C11.2308 6.01894 11.512 6.2234 11.8374 6.27095L14.4965 6.65962C15.3164 6.77946 15.6432 7.7873 15.0496 8.36546L13.127 10.238C12.8912 10.4677 12.7835 10.7989 12.8392 11.1234L13.2927 13.7676C13.4328 14.5846 12.5752 15.2076 11.8416 14.8217L9.4657 13.5723C9.17431 13.419 8.82618 13.419 8.53479 13.5723L6.15888 14.8217C5.42525 15.2076 4.5677 14.5846 4.70782 13.7676L5.16133 11.1234C5.21699 10.7989 5.10933 10.4677 4.87346 10.238L2.95092 8.36546C2.35733 7.7873 2.68411 6.77946 3.50403 6.65962L6.16311 6.27095C6.48846 6.2234 6.76965 6.01894 6.91519 5.72409L8.10354 3.31663Z" fill="#949494"/>
</svg>
